<svg xmlns="http://www.w3.org/2000/svg" viewBox="0 0 20 22"><path d="M3,4V6H5V4ZM3,9v2H5V9Zm0,5v2H5V14ZM7,4V6H9V4ZM7,9v2H9V9Zm0,5v2H9V14Zm0,2H9V14H7Zm0-5H9V9H7ZM7,4V6H9V4ZM3,16H5V14H3Zm0-5H5V9H3ZM3,6H5V4H3ZM18,7H12V2a2,2,0,0,0-2-2H2A2,2,0,0,0,0,2V22H20V9A2,2,0,0,0,18,7ZM10,20H2V2h8Zm8,0H16V16H14v4H12V13h6Zm0-9H12V9h6ZM9,14H7v2H9ZM9,9H7v2H9ZM9,4H7V6H9ZM5,14H3v2H5ZM5,9H3v2H5ZM5,4H3V6H5ZM7,4V6H9V4ZM7,9v2H9V9ZM3,4V6H5V4ZM3,9v2H5V9Zm0,5v2H5V14ZM7,4V6H9V4ZM7,9v2H9V9Zm0,5v2H9V14ZM3,9v2H5V9Zm0,5v2H5V14ZM3,4V6H5V4ZM7,14v2H9V14Z" transform="translate(0)" fill="#5d626e"/></svg>
