<svg xmlns="http://www.w3.org/2000/svg" viewBox="0 0 32 29.44"><path d="M25.6,26.29A6.36,6.36,0,0,1,19.2,20h0a.52.52,0,0,1,0-.21L24.88,6.14a1.59,1.59,0,0,1-.79-.88H19.14a3.15,3.15,0,0,1-2.61,2.58V28.39H20.8a.52.52,0,0,1,.53.52.53.53,0,0,1-.53.53H11.2a.53.53,0,0,1-.53-.53.52.52,0,0,1,.53-.52h4.27V7.83a3.15,3.15,0,0,1-2.62-2.58H7.9a1.64,1.64,0,0,1-.78.88l5.64,13.63a.52.52,0,0,1,0,.21h0a6.36,6.36,0,0,1-6.4,6.31A6.36,6.36,0,0,1,0,20H0a.52.52,0,0,1,0-.21L5.68,6.13a1.56,1.56,0,0,1-.88-1.4A1.59,1.59,0,0,1,6.4,3.15,1.61,1.61,0,0,1,7.9,4.21h4.95a3.15,3.15,0,0,1,2.62-2.59V.53a.53.53,0,1,1,1.06,0v1.1a3.18,3.18,0,0,1,2.61,2.59h4.95a1.6,1.6,0,0,1,3.11.52,1.57,1.57,0,0,1-.88,1.4L32,19.77A.52.52,0,0,1,32,20h0A6.36,6.36,0,0,1,25.6,26.29ZM6.4,25.24a5.32,5.32,0,0,0,5.31-4.74H1.09A5.32,5.32,0,0,0,6.4,25.24ZM1.32,19.45H11.48L6.4,7.18ZM6.4,4.21a.53.53,0,0,0-.54.52.54.54,0,0,0,1.07,0A.52.52,0,0,0,6.4,4.21ZM16,2.63a2.11,2.11,0,1,0,2.13,2.1A2.12,2.12,0,0,0,16,2.63Zm9.6,1.58a.53.53,0,0,0-.54.52.54.54,0,0,0,1.07,0A.52.52,0,0,0,25.6,4.21Zm0,3L20.52,19.45H30.68ZM20.29,20.5a5.34,5.34,0,0,0,10.62,0Zm5.31,3.68a4.3,4.3,0,0,1-3.86-2.4.53.53,0,0,1,1-.45,3.21,3.21,0,0,0,2.89,1.8.53.53,0,0,1,.53.53A.52.52,0,0,1,25.6,24.18Zm-19.2,0a4.3,4.3,0,0,1-3.86-2.4.53.53,0,0,1,.25-.7.54.54,0,0,1,.72.25,3.21,3.21,0,0,0,2.89,1.8.53.53,0,0,1,.53.53A.52.52,0,0,1,6.4,24.18Z"/></svg>
