<svg xmlns="http://www.w3.org/2000/svg" viewBox="0 0 18 22"><path d="M17.9,6.6c-.1-.1-.1-.2-.2-.3l-6-6c-.1-.1-.2-.2-.3-.2A.6.6,0,0,0,11,0H3A3,3,0,0,0,0,3V19a3,3,0,0,0,3,3H15a3,3,0,0,0,3-3V7A.6.6,0,0,0,17.9,6.6ZM12,3.4,14.6,6H12ZM15,20H3a.94.94,0,0,1-1-1V3A.94.94,0,0,1,3,2h7V7a.94.94,0,0,0,1,1h5V19A.94.94,0,0,1,15,20ZM3.9,17c-.28,0-.42-.07-.42-.22V12.38a.25.25,0,0,1,.28-.28H5.23a2.12,2.12,0,0,1,1.16.32,1.32,1.32,0,0,1,.51,1.21,1.41,1.41,0,0,1-1,1.42,2.15,2.15,0,0,1-.65.12H4.56v1.62c0,.15-.14.22-.42.22Zm1.28-2.77a.69.69,0,0,0,.43-.13.56.56,0,0,0,.18-.48.54.54,0,0,0-.18-.47A.64.64,0,0,0,5.18,13H4.56v1.22ZM7.66,17a.31.31,0,0,1-.21-.06.34.34,0,0,1-.07-.22V12.38a.29.29,0,0,1,.07-.21.27.27,0,0,1,.21-.07h1.5a2.09,2.09,0,0,1,1.66.64,2.56,2.56,0,0,1,.58,1.81,2.58,2.58,0,0,1-.58,1.82A2.12,2.12,0,0,1,9.16,17Zm1.5-.92a1,1,0,0,0,.85-.39,1.92,1.92,0,0,0,.29-1.14A1.92,1.92,0,0,0,10,13.41,1,1,0,0,0,9.16,13H8.47v3.06Zm3.37.93c-.28,0-.42-.07-.42-.22V12.38a.24.24,0,0,1,.28-.28h2.3a.2.2,0,0,1,.17.08.64.64,0,0,1,0,.27v.22a.56.56,0,0,1,0,.26.19.19,0,0,1-.17.09h-1.5v1h1.46a.19.19,0,0,1,.16.08.62.62,0,0,1,0,.27v.22a.54.54,0,0,1,0,.26.18.18,0,0,1-.16.09H13.19v1.83c0,.15-.14.22-.42.22Z" fill="#00aa5b"/></svg>
