<svg xmlns="http://www.w3.org/2000/svg" viewBox="0 0 28 28"><path d="M25.59,28H15.93A2.41,2.41,0,0,1,14,27a2.41,2.41,0,0,1-1.93,1H2.41A2.41,2.41,0,0,1,0,25.59V15.93a2.41,2.41,0,0,1,2.41-2.41H7.25a2.46,2.46,0,0,1-.49-1.45V2.41A2.41,2.41,0,0,1,9.17,0h9.66a2.41,2.41,0,0,1,2.41,2.41v9.66a2.46,2.46,0,0,1-.49,1.45h4.84A2.41,2.41,0,0,1,28,15.93v9.66A2.41,2.41,0,0,1,25.59,28ZM2.41,14.48A1.45,1.45,0,0,0,1,15.93v9.66A1.45,1.45,0,0,0,2.41,27h9.66a1.45,1.45,0,0,0,1.45-1.44V15.93a1.45,1.45,0,0,0-1.45-1.45H2.41ZM20.28,2.41A1.45,1.45,0,0,0,18.83,1H9.17A1.45,1.45,0,0,0,7.72,2.41v9.66a1.45,1.45,0,0,0,1.45,1.45h9.66a1.45,1.45,0,0,0,1.45-1.45ZM27,15.93a1.44,1.44,0,0,0-1.44-1.45H15.93a1.45,1.45,0,0,0-1.45,1.45v9.66A1.45,1.45,0,0,0,15.93,27h9.66A1.44,1.44,0,0,0,27,25.59Zm-9.65.48h-1v3.38a.48.48,0,1,1-1,0V16.41a1,1,0,0,1,1-1h1a.48.48,0,0,1,0,1Zm-1.45,4.83a.48.48,0,0,1,.48.48v.49a.48.48,0,0,1-1,0v-.49A.48.48,0,0,1,15.93,21.24ZM10.62,2.9h-1V6.28a.49.49,0,0,1-1,0V2.9a1,1,0,0,1,1-1h1a.49.49,0,0,1,0,1ZM9.17,7.72a.49.49,0,0,1,.49.49v.48a.49.49,0,0,1-1,0V8.21A.49.49,0,0,1,9.17,7.72ZM3.86,16.41h-1v3.38a.49.49,0,1,1-1,0V16.41a1,1,0,0,1,1-1h1a.48.48,0,0,1,0,1ZM2.41,21.24a.49.49,0,0,1,.49.48v.49a.49.49,0,0,1-1,0v-.49A.49.49,0,0,1,2.41,21.24Z" fill-opacity="0.87" fill-rule="evenodd"/></svg>
