<svg xmlns="http://www.w3.org/2000/svg" viewBox="0 0 29.33 26.67"><path d="M28.69,20.73,17.92,2A3.92,3.92,0,0,0,15.49.13a3.84,3.84,0,0,0-3,.4,3.08,3.08,0,0,0-1.28,1.32L.49,20.73A4.1,4.1,0,0,0,1.9,26.14a2.9,2.9,0,0,0,1.79.53h21.8a3.46,3.46,0,0,0,2.69-1.19,3.85,3.85,0,0,0,1.15-2.77,5,5,0,0,0-.64-2Zm-2.31,2.9a1.34,1.34,0,0,1-.89.4H3.69a1.09,1.09,0,0,1-.64-.14,1.47,1.47,0,0,1-.51-1.84L13.44,3.43c.13-.13.25-.39.38-.39a1.36,1.36,0,0,1,1.8.39L26.51,22.05a1,1,0,0,1,.13.66C26.77,23.1,26.51,23.37,26.38,23.63ZM14.59,8.18A1.23,1.23,0,0,0,13.31,9.5v5.29a1.28,1.28,0,1,0,2.56,0V9.51a1.22,1.22,0,0,0-1.28-1.32Zm-.9,11a1.25,1.25,0,0,0-.38.93,1.23,1.23,0,0,0,.38.92,1.18,1.18,0,0,0,.9.4,1.17,1.17,0,0,0,.9-.4,1.47,1.47,0,0,0,.38-.92,1.49,1.49,0,0,0-.38-.93A1.22,1.22,0,0,0,13.69,19.14Z" fill="#b95353"/></svg>
