<svg xmlns="http://www.w3.org/2000/svg" viewBox="0 0 120 41.16"><path d="M20.55,41.16A20.58,20.58,0,1,1,41.11,20.58,20.56,20.56,0,0,1,20.55,41.16ZM20.71,3A17.49,17.49,0,1,0,38.17,20.45,17.48,17.48,0,0,0,20.71,3ZM30.86,20.6a5.31,5.31,0,0,0-1.8-1.42,3.67,3.67,0,0,0,1.44-2.81,4.43,4.43,0,0,0-1.6-3.56,6.55,6.55,0,0,0-4.27-1.29H19.52v9.85h0c0,1.68,0,3-.64,3.87a2.93,2.93,0,0,1-2.58,1.15,2.91,2.91,0,0,1-2.57-1.15c-.64-.93-.64-2.34-.64-4.13V11.52H10v9.93c0,2.26.1,4.43,1.29,6a6.22,6.22,0,0,0,5,2.15,6.32,6.32,0,0,0,5.06-2.15c1.18-1.62,1.3-3.77,1.3-6v-.08h3.07a3,3,0,0,1,2.1.68,2.24,2.24,0,0,1,.74,1.73,2.42,2.42,0,0,1-.74,1.83,2.9,2.9,0,0,1-2.1.7H24.31v3.15h1.42a6.5,6.5,0,0,0,4.43-1.6A5.31,5.31,0,0,0,32,23.78a5.25,5.25,0,0,0-1.11-3.18Zm-4-2.89a3,3,0,0,1-1.88.51H22.65V14.5H25c2.13,0,2.45,1.38,2.45,1.89a1.53,1.53,0,0,1-.57,1.32ZM58.14,21a6.33,6.33,0,0,0-2-1.78c-.74-.42-1.49-.81-2.26-1.16A9.56,9.56,0,0,1,52.06,17a1.51,1.51,0,0,1-.67-1.16A1.81,1.81,0,0,1,53.25,14a2,2,0,0,1,1.22.33,6.4,6.4,0,0,1,1.21,1.23l.17.22,1.94-1.43-.15-.22a6.08,6.08,0,0,0-1.81-1.86,4.6,4.6,0,0,0-2.58-.7A4.45,4.45,0,0,0,50,12.79a4.18,4.18,0,0,0-1.34,3.08,3.68,3.68,0,0,0,.62,2.05,5.22,5.22,0,0,0,1.51,1.45l1.85,1.06c.66.37,1.28.67,1.82,1a4.12,4.12,0,0,1,1.32,1.06,2,2,0,0,1,.51,1.34,3,3,0,0,1-.81,2.12,2.64,2.64,0,0,1-2,.84,3.67,3.67,0,0,1-3.27-2.46L50.07,24l-1.9,1.49.07.18a5.76,5.76,0,0,0,2,2.64,5.38,5.38,0,0,0,3.21.95A5.45,5.45,0,0,0,59,23.83v0A4.35,4.35,0,0,0,58.14,21Zm15.58-.3V18.37H67.64V14.28h8V11.94H65.19V28.81H76.4V26.46H67.64V20.74Zm24.69,8.07V11.94h-2.5V24.85L85.52,11.94H83.05V28.81h2.49V15.91l10.39,12.9Zm19-14.45a9.15,9.15,0,0,0-6.5-2.42h-5.44V28.81h5.44a9.16,9.16,0,0,0,6.5-2.42,8,8,0,0,0,2.59-6A8,8,0,0,0,117.41,14.36ZM115.5,24.68a6.26,6.26,0,0,1-4.59,1.76h-3.06V14.27h3A6.32,6.32,0,0,1,115.48,16a5.71,5.71,0,0,1,1.82,4.33A5.65,5.65,0,0,1,115.5,24.68Z" fill="#171e30"/></svg>
